<svg id="b542b3f6-d4ba-4edb-a3f9-d47c5fda2731" data-name="Livello 1" xmlns="http://www.w3.org/2000/svg" viewBox="0 0 209.38 209.38"><defs><style>.af4ea70b-97e0-4639-b35b-7fb84094ff0b{fill:#fff200;}.a49b9f15-7afa-4315-90d5-3a834c6ab955,.af4ea70b-97e0-4639-b35b-7fb84094ff0b,.be8922d6-5426-47a0-8971-1f14d152ba7e{stroke:#231f20;stroke-miterlimit:10;}.a49b9f15-7afa-4315-90d5-3a834c6ab955{fill:#ed1c24;stroke-width:3px;}.be8922d6-5426-47a0-8971-1f14d152ba7e{fill:#fff;stroke-width:4px;}</style></defs><title>Snapside1</title><rect class="af4ea70b-97e0-4639-b35b-7fb84094ff0b" x="231.05" y="209.62" width="177.4" height="177.4" rx="29.11" transform="translate(-291.53 -80.37) rotate(-17.98)"/><rect class="a49b9f15-7afa-4315-90d5-3a834c6ab955" x="15.99" y="15.99" width="177.4" height="177.4" rx="29.11"/><path class="be8922d6-5426-47a0-8971-1f14d152ba7e" d="M314.14,289.82a31.69,31.69,0,0,0-6.56-1,7.76,7.76,0,0,0-5,1.87,7.36,7.36,0,0,0-2.75,5.92q0,2.82,5,10.84t5,14.77a20.06,20.06,0,0,1-7.45,16q-7.08,6-17.51,6-9.62,0-14.18-1.35c-.36-1.8-1-4.73-1.82-8.79q-.82-3.29-2.29-8.73A45.16,45.16,0,0,0,275.3,327q8.73,0,8.73-6.62a12.39,12.39,0,0,0-3.52-8.61q-5.75-5-11.48-10.14-11.14-9.84-11.14-23.38,0-14.11,10.55-21.38,9.19-6.33,24.49-6.33a86.38,86.38,0,0,1,19.46,2.52Z" transform="translate(-215.06 -193.63)"/><path class="be8922d6-5426-47a0-8971-1f14d152ba7e" d="M380.3,253l-2.52,37.09c-1.45-.23-4.57-.64-9.38-1.23q-4.92-.46-10.78-.59l-.88,11.19q6.45.18,21-.29c-.43,1.45-1.12,4.14-2,8.09q-.83,3.57-1.47,8.26a84.73,84.73,0,0,0-8.5-1.06c-2.1-.11-5.23-.15-9.37-.11l-.59,13.06q4.4,0,16.18-.76a52.79,52.79,0,0,0,7.32-1.4c-.31,1.21-1,4.12-2.17,8.73q-.83,3.57-2,9H322.7L321,297q-.47-15.75-2.29-44.06Z" transform="translate(-215.06 -193.63)"/></svg>